<?xml version="1.0" encoding="utf-8"?>
<svg xmlns="http://www.w3.org/2000/svg"
	xmlns:xlink="http://www.w3.org/1999/xlink"
	width="65px" height="65px" viewBox="0 0 65 65">
<filter filterUnits="objectBoundingBox" x="0.00" y="0.00" width="100.00" height="100.00" id="filter0">
<feImage x="0" y="0" width="65" height="65" preserveApectRatio="none" xlink:href="#symbol0"/>
<feComposite in="grImage1" in2="SourceAlpha" operator="in" result="grOverlay1"/>
<feBlend in="grOverlay1" in2="SourceGraphic" mode="normal" result="gradientOverlay1"/>
</filter>
<linearGradient id="linear_PSgrad_0" x1="-25%" y1="50%" x2="125%" y2="50%">
    <stop offset="0%" stop-color="rgb(100,87,223)" stop-opacity="1" />
    <stop offset="0.463867%" stop-color="rgb(100,87,223)" stop-opacity="1" />
    <stop offset="99.292%" stop-color="rgb(38,238,213)" stop-opacity="1" />
    <stop offset="100%" stop-color="rgb(38,238,213)" stop-opacity="1" />
</linearGradient>

<defs>
<rect x="0" y="0" width="65" height="65" id="symbol0" fill="url(#linear_PSgrad_0)"/></defs>
<path fillRule="evenodd" d="M 63.73 7.62C 63.73 7.62 59.92 7.62 59.92 7.62 59.92 7.62 59.92 11.43 59.92 11.43 59.92 12.13 59.35 12.7 58.65 12.7 57.95 12.7 57.38 12.13 57.38 11.43 57.38 11.43 57.38 7.62 57.38 7.62 57.38 7.62 53.57 7.62 53.57 7.62 52.87 7.62 52.3 7.05 52.3 6.35 52.3 5.65 52.87 5.08 53.57 5.08 53.57 5.08 57.38 5.08 57.38 5.08 57.38 5.08 57.38 1.27 57.38 1.27 57.38 0.57 57.95-0 58.65-0 59.35-0 59.92 0.57 59.92 1.27 59.92 1.27 59.92 5.08 59.92 5.08 59.92 5.08 63.73 5.08 63.73 5.08 64.43 5.08 65 5.65 65 6.35 65 7.05 64.43 7.62 63.73 7.62ZM 58.87 28.23C 58.87 28.23 58.87 28.23 58.87 28.23 58.87 28.23 33.48 58.7 33.48 58.7 33.47 58.71 33.47 58.71 33.47 58.71 33.45 58.74 33.42 58.77 33.39 58.79 33.38 58.8 33.38 58.81 33.37 58.82 33.34 58.84 33.31 58.87 33.28 58.9 33.27 58.9 33.27 58.9 33.27 58.9 33.24 58.92 33.21 58.95 33.17 58.97 33.17 58.97 33.16 58.98 33.15 58.98 33.11 59 33.08 59.02 33.04 59.04 33.04 59.04 33.03 59.04 33.03 59.04 33 59.06 32.96 59.07 32.93 59.09 32.92 59.09 32.91 59.09 32.9 59.1 32.86 59.11 32.82 59.12 32.78 59.13 32.78 59.13 32.77 59.13 32.77 59.13 32.73 59.14 32.7 59.14 32.66 59.15 32.65 59.15 32.64 59.15 32.63 59.15 32.58 59.16 32.54 59.16 32.5 59.16 32.46 59.16 32.42 59.16 32.37 59.15 32.36 59.15 32.35 59.15 32.34 59.15 32.3 59.14 32.27 59.14 32.23 59.13 32.23 59.13 32.22 59.13 32.22 59.13 32.18 59.12 32.14 59.11 32.1 59.1 32.09 59.09 32.08 59.09 32.07 59.09 32.04 59.07 32 59.06 31.97 59.04 31.97 59.04 31.96 59.04 31.96 59.04 31.92 59.02 31.89 59 31.85 58.98 31.84 58.98 31.83 58.97 31.83 58.97 31.79 58.95 31.76 58.92 31.73 58.9 31.73 58.9 31.73 58.9 31.72 58.9 31.69 58.87 31.66 58.84 31.63 58.82 31.62 58.81 31.62 58.8 31.61 58.79 31.58 58.77 31.55 58.74 31.53 58.71 31.53 58.71 31.53 58.7 31.52 58.7 31.52 58.7 6.13 28.23 6.13 28.23 6.13 28.23 6.13 28.23 6.13 28.23 5.75 27.78 5.74 27.1 6.12 26.63 6.12 26.63 16.27 13.93 16.27 13.93 16.52 13.63 16.88 13.46 17.27 13.46 17.27 13.46 47.73 13.46 47.73 13.46 48.12 13.46 48.48 13.63 48.73 13.93 48.73 13.93 58.88 26.63 58.88 26.63 59.26 27.09 59.25 27.77 58.87 28.23ZM 55.18 28.69C 55.18 28.69 46.04 28.69 46.04 28.69 46.04 28.69 36.9 50.62 36.9 50.62 36.9 50.62 55.18 28.69 55.18 28.69ZM 32.5 54.59C 32.5 54.59 43.29 28.69 43.29 28.69 43.29 28.69 21.71 28.69 21.71 28.69 21.71 28.69 32.5 54.59 32.5 54.59ZM 28.1 50.62C 28.1 50.62 18.96 28.69 18.96 28.69 18.96 28.69 9.82 28.69 9.82 28.69 9.82 28.69 28.1 50.62 28.1 50.62ZM 17.88 16C 17.88 16 9.75 26.15 9.75 26.15 9.75 26.15 19.09 26.15 19.09 26.15 19.09 26.15 25.18 16 25.18 16 25.18 16 17.88 16 17.88 16ZM 28.14 16C 28.14 16 22.05 26.15 22.05 26.15 22.05 26.15 42.95 26.15 42.95 26.15 42.95 26.15 36.86 16 36.86 16 36.86 16 28.14 16 28.14 16ZM 47.12 16C 47.12 16 39.82 16 39.82 16 39.82 16 45.91 26.15 45.91 26.15 45.91 26.15 55.25 26.15 55.25 26.15 55.25 26.15 47.12 16 47.12 16ZM 27.42 31.23C 28.12 31.23 28.69 31.8 28.69 32.5 28.69 33.2 28.12 33.77 27.42 33.77 26.72 33.77 26.15 33.2 26.15 32.5 26.15 31.8 26.72 31.23 27.42 31.23ZM 32.5 31.23C 32.5 31.23 37.58 31.23 37.58 31.23 38.28 31.23 38.85 31.8 38.85 32.5 38.85 33.2 38.28 33.77 37.58 33.77 37.58 33.77 32.5 33.77 32.5 33.77 31.8 33.77 31.23 33.2 31.23 32.5 31.23 31.8 31.8 31.23 32.5 31.23ZM 7.62 53.57C 7.62 53.57 7.62 57.38 7.62 57.38 7.62 57.38 11.43 57.38 11.43 57.38 12.13 57.38 12.7 57.95 12.7 58.65 12.7 59.35 12.13 59.92 11.43 59.92 11.43 59.92 7.62 59.92 7.62 59.92 7.62 59.92 7.62 63.73 7.62 63.73 7.62 64.43 7.05 65 6.35 65 5.65 65 5.08 64.43 5.08 63.73 5.08 63.73 5.08 59.92 5.08 59.92 5.08 59.92 1.27 59.92 1.27 59.92 0.57 59.92-0 59.35-0 58.65-0 57.95 0.57 57.38 1.27 57.38 1.27 57.38 5.08 57.38 5.08 57.38 5.08 57.38 5.08 53.57 5.08 53.57 5.08 52.87 5.65 52.3 6.35 52.3 7.05 52.3 7.62 52.87 7.62 53.57Z" fill="rgb(0,0,0)" filter="url(#filter0)"/></svg>