<?xml version="1.0" encoding="utf-8"?>
<svg xmlns="http://www.w3.org/2000/svg"
	xmlns:xlink="http://www.w3.org/1999/xlink"
	width="54px" height="54px" viewBox="0 0 54 54">
<filter filterUnits="objectBoundingBox" x="0.00" y="0.00" width="100.00" height="100.00" id="filter0">
<feImage x="0" y="0" width="54" height="54" preserveApectRatio="none" xlink:href="#symbol0"/>
<feComposite in="grImage1" in2="SourceAlpha" operator="in" result="grOverlay1"/>
<feBlend in="grOverlay1" in2="SourceGraphic" mode="normal" result="gradientOverlay1"/>
</filter>
<linearGradient id="linear_PSgrad_0" x1="-25%" y1="50%" x2="125%" y2="50%">
    <stop offset="0%" stop-color="rgb(100,87,223)" stop-opacity="1" />
    <stop offset="0.463867%" stop-color="rgb(100,87,223)" stop-opacity="1" />
    <stop offset="99.292%" stop-color="rgb(38,238,213)" stop-opacity="1" />
    <stop offset="100%" stop-color="rgb(38,238,213)" stop-opacity="1" />
</linearGradient>

<defs>
<rect x="0" y="0" width="54" height="54" id="symbol0" fill="url(#linear_PSgrad_0)"/></defs>
<path fillRule="evenodd" d="M 50.84-0C 50.84-0 3.16-0 3.16-0 1.42-0-0 1.42-0 3.16-0 3.16-0 40.29-0 40.29-0 42.04 1.42 43.45 3.16 43.45 3.16 43.45 21.73 43.45 21.73 43.45 21.73 43.45 21.73 43.63 21.73 43.63 21.73 45.14 21.19 46.56 20.21 47.68 18.23 47.72 16.78 48.01 15.7 48.6 14.1 49.46 13.29 50.92 13.29 52.95 13.29 53.53 13.76 54 14.34 54 14.34 54 39.66 54 39.66 54 40.24 54 40.71 53.53 40.71 52.95 40.71 50.92 39.9 49.46 38.3 48.6 37.22 48.01 35.77 47.72 33.79 47.68 32.81 46.56 32.27 45.14 32.27 43.63 32.27 43.63 32.27 43.45 32.27 43.45 32.27 43.45 50.84 43.45 50.84 43.45 52.58 43.45 54 42.04 54 40.29 54 40.29 54 3.16 54 3.16 54 1.42 52.58-0 50.84-0ZM 33.33 49.78C 36.83 49.78 38.11 50.59 38.47 51.89 38.47 51.89 15.53 51.89 15.53 51.89 15.76 51.07 16.25 50.69 16.7 50.45 17.54 50 18.84 49.78 20.67 49.78 20.67 49.78 33.33 49.78 33.33 49.78ZM 31.22 47.67C 31.22 47.67 22.78 47.67 22.78 47.67 23.47 46.45 23.84 45.07 23.84 43.63 23.84 43.63 23.84 43.45 23.84 43.45 23.84 43.45 30.16 43.45 30.16 43.45 30.16 43.45 30.16 43.63 30.16 43.63 30.16 45.07 30.53 46.45 31.22 47.67ZM 51.89 40.29C 51.89 40.87 51.42 41.34 50.84 41.34 50.84 41.34 3.16 41.34 3.16 41.34 2.58 41.34 2.11 40.87 2.11 40.29 2.11 40.29 2.11 35.86 2.11 35.86 2.11 35.86 51.89 35.86 51.89 35.86 51.89 35.86 51.89 40.29 51.89 40.29ZM 51.89 33.75C 51.89 33.75 2.11 33.75 2.11 33.75 2.11 33.75 2.11 3.16 2.11 3.16 2.11 2.58 2.58 2.11 3.16 2.11 3.16 2.11 50.84 2.11 50.84 2.11 51.42 2.11 51.89 2.58 51.89 3.16 51.89 3.16 51.89 33.75 51.89 33.75Z" fill="rgb(0,0,0)" filter="url(#filter0)"/></svg>