<?xml version="1.0" encoding="utf-8"?>
<svg xmlns="http://www.w3.org/2000/svg"
	xmlns:xlink="http://www.w3.org/1999/xlink"
	width="21px" height="47px" viewBox="0 0 21 47">
<path fillRule="evenodd" d="M 20.99 23.23C 20.99 23.23 20.34 23.58 20.34 23.58 20.34 23.58 20.47 23.65 20.47 23.65 20.47 23.65 1.91 46.99 1.91 46.99 1.91 46.99 1.21 46.62 1.21 46.62 1.21 46.62 0.91 46.99 0.91 46.99 0.91 46.99 0.01 46.51 0.01 46.51 0.01 46.51 18.58 23.17 18.58 23.17 18.58 23.17 18.72 23.24 18.72 23.24 18.72 23.24 0.53 0.48 0.53 0.48 0.53 0.48 1.42 0.01 1.42 0.01 1.42 0.01 1.72 0.38 1.72 0.38 1.72 0.38 2.42 0.01 2.42 0.01 2.42 0.01 20.99 23.23 20.99 23.23Z" fill="rgb(255,255,255)"/></svg>