<?xml version="1.0" encoding="utf-8"?>
<svg xmlns="http://www.w3.org/2000/svg"
	xmlns:xlink="http://www.w3.org/1999/xlink"
	width="60px" height="60px" viewBox="0 0 60 60">
<filter filterUnits="objectBoundingBox" x="0.00" y="0.00" width="100.00" height="98.36" id="filter0">
<feImage x="0" y="0" width="60" height="61" preserveApectRatio="none" xlink:href="#symbol0"/>
<feComposite in="grImage1" in2="SourceAlpha" operator="in" result="grOverlay1"/>
<feBlend in="grOverlay1" in2="SourceGraphic" mode="normal" result="gradientOverlay1"/>
</filter>
<linearGradient id="linear_PSgrad_0" x1="-25%" y1="50%" x2="125%" y2="50%">
    <stop offset="0%" stop-color="rgb(100,87,223)" stop-opacity="1" />
    <stop offset="0.463867%" stop-color="rgb(100,87,223)" stop-opacity="1" />
    <stop offset="99.292%" stop-color="rgb(38,238,213)" stop-opacity="1" />
    <stop offset="100%" stop-color="rgb(38,238,213)" stop-opacity="1" />
</linearGradient>

<defs>
<rect x="0" y="0" width="60" height="61" id="symbol0" fill="url(#linear_PSgrad_0)"/></defs>
<path fillRule="evenodd" d="M 57.09 15.29C 54.96 21.3 51.93 26.31 48.06 30.17 47.19 31.04 46.27 31.89 45.31 32.69 47.57 36.52 46.86 39.58 45.82 41.52 43.43 45.98 36.95 48.75 32.31 48.75 31.84 48.75 31.41 48.46 31.23 48.02 31.05 47.59 31.15 47.08 31.48 46.75 33.84 44.39 33.69 41.49 33.56 40.54 33.56 40.54 33.15 40.13 33.15 40.13 31.23 40.94 29.32 41.59 27.46 42.07 26.82 42.23 26.11 42.2 25.43 41.93 24.91 43.05 24.14 44.14 23.19 45.09 20.18 48.11 12.83 48.72 12.51 48.74 12.48 48.75 12.45 48.75 12.42 48.75 12.11 48.75 11.81 48.62 11.59 48.4 11.35 48.16 11.23 47.82 11.25 47.48 11.28 47.17 11.89 39.82 14.91 36.8 15.86 35.86 16.94 35.09 18.07 34.57 17.82 33.92 17.76 33.21 17.93 32.54 18.41 30.68 19.06 28.77 19.87 26.85 19.87 26.85 19.46 26.43 19.46 26.43 18.51 26.31 15.6 26.16 13.25 28.52 13.03 28.74 12.73 28.86 12.42 28.86 12.27 28.86 12.12 28.83 11.97 28.77 11.54 28.59 11.25 28.16 11.25 27.69 11.25 23.05 14.01 16.57 18.47 14.18 20.41 13.14 23.48 12.43 27.31 14.69 28.11 13.73 28.96 12.81 29.82 11.94 33.69 8.07 38.7 5.04 44.71 2.91 52.21 0.26 58.52 0.01 58.79 0 59.11-0.01 59.43 0.11 59.66 0.34 59.89 0.57 60.01 0.89 60 1.21 59.99 1.48 59.74 7.79 57.09 15.29ZM 43.76 40.42C 44.78 38.5 44.68 36.4 43.46 34.18 40.97 36.07 38.28 37.72 35.44 39.1 35.45 39.12 35.7 39.31 35.79 39.69 36.2 41.32 35.96 44.01 34.83 46.13 38.35 45.4 42.22 43.28 43.76 40.42ZM 25.86 39.46C 26.15 39.76 26.54 39.88 26.88 39.8 28.34 39.42 29.84 38.93 31.36 38.33 31.36 38.33 21.66 28.64 21.66 28.64 21.07 30.16 20.58 31.66 20.2 33.12 20.11 33.46 20.24 33.85 20.53 34.14 22.38 35.99 23.22 36.83 23.56 37.17 23.75 37.36 24.34 37.95 25.86 39.46ZM 19.57 36.49C 18.51 36.87 17.47 37.56 16.56 38.46 14.95 40.07 14.1 43.85 13.76 46.24 16.15 45.89 19.93 45.04 21.54 43.43 22.44 42.53 23.12 41.48 23.51 40.43 23.51 40.43 19.57 36.49 19.57 36.49ZM 19.58 16.24C 16.71 17.78 14.6 21.64 13.87 25.17 17.02 23.5 20.12 24.16 20.28 24.2 20.67 24.29 20.88 24.55 20.9 24.56 22.27 21.72 23.92 19.03 25.82 16.54 23.59 15.32 21.5 15.22 19.58 16.24ZM 31.48 13.6C 30.43 14.66 29.41 15.79 28.45 16.98 26.15 19.83 24.21 22.97 22.66 26.32 22.66 26.32 33.68 37.34 33.68 37.34 37.03 35.79 40.17 33.85 43.02 31.55 44.21 30.59 45.34 29.57 46.4 28.52 49.87 25.05 52.63 20.57 54.62 15.2 54.62 15.2 44.8 5.38 44.8 5.38 39.43 7.37 34.95 10.13 31.48 13.6ZM 47.27 4.53C 47.27 4.53 55.47 12.73 55.47 12.73 56.85 8.26 57.37 4.38 57.56 2.44 55.62 2.63 51.74 3.15 47.27 4.53ZM 46.4 21.89C 44.11 24.17 40.4 24.17 38.11 21.89 35.83 19.6 35.83 15.89 38.11 13.6 40.4 11.31 44.11 11.31 46.4 13.6 48.69 15.89 48.69 19.6 46.4 21.89ZM 44.74 15.26C 43.37 13.89 41.14 13.89 39.77 15.26 38.4 16.63 38.4 18.86 39.77 20.23 41.14 21.6 43.37 21.6 44.74 20.23 46.11 18.86 46.11 16.63 44.74 15.26ZM 36.45 25.2C 36.45 25.2 34.8 26.86 34.8 26.86 34.34 27.32 33.6 27.32 33.14 26.86 32.68 26.4 32.68 25.66 33.14 25.2 33.14 25.2 34.8 23.54 34.8 23.54 35.25 23.09 36 23.09 36.45 23.54 36.91 24 36.91 24.74 36.45 25.2ZM 29.82 30.17C 29.37 29.72 29.37 28.97 29.82 28.52 30.28 28.06 31.02 28.06 31.48 28.52 31.94 28.97 31.94 29.72 31.48 30.17 31.02 30.63 30.28 30.63 29.82 30.17ZM 11.59 33.49C 11.59 33.49 8.28 36.8 8.28 36.8 7.82 37.26 7.08 37.26 6.62 36.8 6.16 36.34 6.16 35.6 6.62 35.15 6.62 35.15 9.94 31.83 9.94 31.83 10.39 31.37 11.14 31.37 11.59 31.83 12.05 32.29 12.05 33.03 11.59 33.49ZM 9.94 40.12C 10.39 40.57 10.39 41.32 9.94 41.77 9.94 41.77 2 49.71 2 49.71 1.54 50.17 0.8 50.17 0.34 49.71-0.12 49.25-0.12 48.51 0.34 48.06 0.34 48.06 8.28 40.12 8.28 40.12 8.74 39.66 9.48 39.66 9.94 40.12ZM 8.85 50.06C 9.31 49.6 10.05 49.6 10.5 50.06 10.96 50.52 10.96 51.26 10.5 51.72 10.5 51.72 2.57 59.66 2.57 59.66 2.11 60.11 1.37 60.11 0.91 59.66 0.45 59.2 0.45 58.46 0.91 58 0.91 58 8.85 50.06 8.85 50.06ZM 18.22 50.06C 18.68 49.6 19.42 49.6 19.88 50.06 20.34 50.52 20.34 51.26 19.88 51.72 19.88 51.72 11.94 59.66 11.94 59.66 11.48 60.11 10.74 60.11 10.28 59.66 9.83 59.2 9.83 58.46 10.28 58 10.28 58 18.22 50.06 18.22 50.06ZM 26.51 48.4C 26.97 47.95 27.71 47.95 28.17 48.4 28.62 48.86 28.62 49.6 28.17 50.06 28.17 50.06 24.85 53.38 24.85 53.38 24.4 53.83 23.65 53.83 23.2 53.38 22.74 52.92 22.74 52.18 23.2 51.72 23.2 51.72 26.51 48.4 26.51 48.4Z" fill="rgb(0,0,0)" filter="url(#filter0)"/></svg>